# xmcd CD database file
# Copyright (C) 1993-1996 Ti Kan
#
# Track frame offsets:
#	183
#	12858
#	26483
#	40230
#	52958
#	64438
#	75393
#	86843
#	99778
#	112318
#	125663
#	139223
#	152490
#	165633
#	179865
#	208025
#	219295
#	240898
#	265728
#	281873
#
# Disc length: 4357 seconds
#
# Revision: 1
# Processed by: cddbd v1.4b41PL1 Copyright (c) Steve Scherf et al.
# Submitted via: xmcd 2.0
#
DISCID=19110314
DTITLE=B. B. King - King of the Blues Guitar
DYEAR=1900
DGENRE=
TTITLE0=Everyday I Have The Blues
TTITLE1=Sweet Little Angel
TTITLE2=You Upset Me Baby
TTITLE3=Please Love Me
TTITLE4=Early Every Morning
TTITLE5=You Don' t Know
TTITLE6=Did You Ever Love A Woman
TTITLE7=Bad Luck
TTITLE8=Ten Long Years
TTITLE9=Crying Won' t Help You
TTITLE10=3 O'Clock Blues
TTITLE11=Blind Love
TTITLE12=Woke Up This Morning
TTITLE13=Rock Me Baby
TTITLE14=Sweet Sixteen
TTITLE15=Waitin' On You
TTITLE16=Gambler's Blues
TTITLE17=The Thrill Is Gone
TTITLE18=Tired Of Your Jive
TTITLE19=Worry, Worry, Worry
EXTD=
EXTT0=
EXTT1=
EXTT2=
EXTT3=
EXTT4=
EXTT5=
EXTT6=
EXTT7=
EXTT8=
EXTT9=
EXTT10=
EXTT11=
EXTT12=
EXTT13=
EXTT14=
EXTT15=
EXTT16=
EXTT17=
EXTT18=
EXTT19=
PLAYORDER=
